<?xml version="1.0" encoding="UTF-8"?>
<svg width="52px" height="51px" viewBox="0 0 52 51" version="1.1" xmlns="http://www.w3.org/2000/svg" xmlns:xlink="http://www.w3.org/1999/xlink">
    <title>Fill 51</title>
    <g id="Page-1" stroke="none" stroke-width="1" fill="none" fill-rule="evenodd">
        <g id="Landing-Page" transform="translate(-567.000000, -10130.000000)" fill="#0F0F0F" stroke="#6C00FF" stroke-width="0.64">
            <g id="Group-8" transform="translate(563.000000, 10127.000000)">
                <path d="M5,29.120069 C5,40.2189572 12.1633202,49.6351873 22.0966674,52.9568252 C23.3460981,53.1893607 23.8048023,52.4118852 23.8048023,51.7483896 C23.8048023,51.1493716 23.7816187,49.1705323 23.7708549,47.0714735 C16.8157731,48.5910656 15.3481681,44.1075824 15.3481681,44.1075824 C14.2109294,41.204009 12.5723453,40.4319414 12.5723453,40.4319414 C10.3040778,38.8728307 12.7433244,38.9048615 12.7433244,38.9048615 C15.2537777,39.081655 16.5756572,41.4935344 16.5756572,41.4935344 C18.8054233,45.3339053 22.4241358,44.2236421 23.8507555,43.5817777 C24.0751397,41.9586053 24.7230387,40.8495901 25.4380046,40.2227011 C19.885117,39.5874924 14.0478162,37.4335236 14.0478162,27.8080532 C14.0478162,25.065466 15.0244256,22.8245563 16.6236804,21.065357 C16.3641068,20.4322282 15.5083834,17.8776661 16.8658663,14.4175052 C16.8658663,14.4175052 18.9652246,13.742362 23.7427034,16.9924506 C25.7369075,16.4358631 27.8755951,16.1567373 30.000207,16.1471697 C32.1248189,16.1567373 34.2651625,16.4358631 36.2630925,16.9924506 C41.0347754,13.742362 43.1312358,14.4175052 43.1312358,14.4175052 C44.4920306,17.8776661 43.6358932,20.4322282 43.3763196,21.065357 C44.9793004,22.8245563 45.9492859,25.065466 45.9492859,27.8080532 C45.9492859,37.4564027 40.1008073,39.5808367 34.5338439,40.2027338 C35.4305527,40.9822892 36.2295591,42.511033 36.2295591,44.8546909 C36.2295591,48.2154314 36.2005796,50.92058 36.2005796,51.7483896 C36.2005796,52.4168771 36.6505899,53.2001763 37.9178224,52.9534973 C47.8457876,49.6281155 55,40.2152134 55,29.120069 C55,15.2461468 43.8068723,4 30.000207,4 C16.1947837,4 5,15.2461468 5,29.120069 Z" id="Fill-51"></path>
            </g>
        </g>
    </g>
</svg>