<?xml version="1.0" encoding="UTF-8"?>
<svg width="52px" height="52px" viewBox="0 0 52 52" version="1.1" xmlns="http://www.w3.org/2000/svg" xmlns:xlink="http://www.w3.org/1999/xlink">
    <title>Combined Shape</title>
    <g id="Page-1" stroke="none" stroke-width="1" fill="none" fill-rule="evenodd">
        <g id="Landing-Page" transform="translate(-653.000000, -10129.000000)" fill="#0F0F0F" stroke="#6C00FF" stroke-width="0.64">
            <path d="M679,10130 C692.807119,10130 704,10141.1929 704,10155 C704,10168.8071 692.807119,10180 679,10180 C665.192881,10180 654,10168.8071 654,10155 C654,10141.1929 665.192881,10130 679,10130 Z M666.782729,10144.263 C666.698701,10144.263 666.627641,10144.2957 666.577633,10144.3553 C666.52869,10144.4136 666.5,10144.4978 666.5,10144.6033 L666.5,10161.5809 C666.5,10161.8698 666.713979,10162.2119 666.975479,10162.3411 L674.372279,10165.9957 C674.475049,10166.0465 674.572934,10166.0705 674.661404,10166.0705 C674.910646,10166.0705 675.085454,10165.88 675.085454,10165.5601 L675.085454,10148.4368 C675.085454,10148.3652 675.044505,10148.2996 674.979663,10148.2676 L666.975479,10144.3129 C666.906995,10144.279 666.841709,10144.263 666.782729,10144.263 Z M692.255561,10149.7521 L684.35477,10162.4388 L691.542387,10165.9901 C691.934637,10166.1839 692.255561,10165.9879 692.255561,10165.5544 L692.255561,10149.7521 Z M675.844284,10149.5384 L675.844284,10158.2392 L683.670996,10162.1062 L675.844284,10149.5384 Z M683.783093,10144.1667 C683.683876,10144.1667 683.585102,10144.2159 683.53163,10144.3017 L678.5029,10152.3767 L684.116453,10161.3908 L692.145685,10148.4978 C692.205198,10148.4022 692.169046,10148.2767 692.06743,10148.2265 L683.908691,10144.1955 C683.871651,10144.1771 683.831325,10144.1686 683.790998,10144.1675 C683.788334,10144.1675 683.785758,10144.1667 683.783093,10144.1667 Z" id="Combined-Shape"></path>
        </g>
    </g>
</svg>