<?xml version="1.0" encoding="UTF-8"?>
<svg width="60px" height="58px" viewBox="0 0 60 58" version="1.1" xmlns="http://www.w3.org/2000/svg" xmlns:xlink="http://www.w3.org/1999/xlink">
    <title>Group 22</title>
    <g id="Page-1" stroke="none" stroke-width="1" fill="none" fill-rule="evenodd">
        <g id="Landing-Page" transform="translate(-649.000000, -10127.000000)" stroke="#6C00FF" stroke-width="0.64">
            <g id="Group-22" transform="translate(649.000000, 10127.000000)">
                <ellipse id="Oval" cx="30" cy="29" rx="29.68" ry="28.68"></ellipse>
                <path d="M30,4 C43.8071194,4 55,15.1928806 55,29 C55,42.8071194 43.8071194,54 30,54 C16.1928806,54 5,42.8071194 5,29 C5,15.1928806 16.1928806,4 30,4 Z M17.7827295,18.2630416 C17.6987012,18.2630416 17.6276413,18.2956932 17.5776329,18.3552912 C17.5286904,18.4135726 17.5,18.4978348 17.5,18.6032504 L17.5,35.580863 C17.5,35.8698123 17.713979,36.2118643 17.9754794,36.3410664 L25.3722789,39.9956778 C25.4750493,40.0464984 25.5729343,40.0705483 25.6614038,40.0705483 C25.9106463,40.0705483 26.0854536,39.8799927 26.0854536,39.5601473 L26.0854536,22.4368312 C26.0854536,22.3652083 26.0445053,22.2996418 25.9796632,22.2676046 L17.9754794,18.3128968 C17.9069954,18.2790163 17.8417092,18.2630416 17.7827295,18.2630416 Z M43.2555613,23.7521122 L35.3547696,36.4388457 L42.5423867,39.9900603 C42.9346371,40.1838634 43.2555613,39.987866 43.2555613,39.5544421 L43.2555613,23.7521122 Z M26.8442842,23.5383845 L26.8442842,32.239163 L34.670996,36.1061854 L26.8442842,23.5383845 Z M34.7830929,18.1666667 C34.6838756,18.1666667 34.5851023,18.2159074 34.5316298,18.3016618 L29.5029004,26.3767054 L35.1164525,35.3908341 L43.145685,22.4978336 C43.2051976,22.4021608 43.1690459,22.276733 43.0674303,22.2265267 L34.9086912,18.1954563 C34.8716513,18.1771117 34.8313248,18.1685977 34.7909983,18.1675444 C34.7883336,18.1674566 34.7857577,18.1666667 34.7830929,18.1666667 Z" id="Combined-Shape"></path>
            </g>
        </g>
    </g>
</svg>