<?xml version="1.0" encoding="UTF-8"?>
<svg width="52px" height="52px" viewBox="0 0 52 52" version="1.1" xmlns="http://www.w3.org/2000/svg" xmlns:xlink="http://www.w3.org/1999/xlink">
    <title>Combined Shape</title>
    <g id="Page-1" stroke="none" stroke-width="1" fill="none" fill-rule="evenodd">
        <g id="Landing-Page" transform="translate(-826.000000, -10129.000000)" fill="#0F0F0F" stroke="#6C00FF" stroke-width="0.64">
            <path d="M852,10130 C865.807119,10130 877,10141.1929 877,10155 C877,10168.8071 865.807119,10180 852,10180 C838.192881,10180 827,10168.8071 827,10155 C827,10141.1929 838.192881,10130 852,10130 Z M862.542,10145.1884 L838.46075,10154.474 C836.816979,10155.1333 836.826563,10156.0504 838.161125,10156.459 L844.340917,10158.3878 L858.647792,10149.3618 C859.323188,10148.9522 859.943063,10149.1724 859.434292,10149.624 L847.841667,10160.0854 L847.842,10160.086 L847.416667,10166.4583 C848.041667,10166.4583 848.317813,10166.1725 848.666667,10165.8333 L851.669,10162.913 L857.916667,10167.529 C859.066354,10168.1633 859.896125,10167.8349 860.1825,10166.4616 L864.283542,10147.1359 C864.703417,10145.4526 863.641854,10144.6891 862.542,10145.1884 Z" id="Combined-Shape"></path>
        </g>
    </g>
</svg>