<?xml version="1.0" encoding="UTF-8"?>
<svg width="60px" height="58px" viewBox="0 0 60 58" version="1.1" xmlns="http://www.w3.org/2000/svg" xmlns:xlink="http://www.w3.org/1999/xlink">
    <title>Group 24</title>
    <g id="Page-1" stroke="none" stroke-width="1" fill="none" fill-rule="evenodd">
        <g id="Landing-Page" transform="translate(-822.000000, -10126.000000)" stroke="#6C00FF" stroke-width="0.64">
            <g id="Group-24" transform="translate(822.000000, 10126.000000)">
                <ellipse id="Oval" cx="30" cy="29" rx="29.68" ry="28.68"></ellipse>
                <path d="M30,4 C43.8071187,4 55,15.1928813 55,29 C55,42.8071187 43.8071187,54 30,54 C16.1928813,54 5,42.8071187 5,29 C5,15.1928813 16.1928813,4 30,4 Z M40.542,19.1883958 L16.46075,28.4740208 C14.8169792,29.1333333 14.8265625,30.0503958 16.161125,30.4590208 L22.3409167,32.3878333 L36.6477917,23.3617917 C37.3231875,22.9522292 37.9430625,23.1724188 37.4342917,23.6239583 L25.8416667,34.0854167 L25.842,34.086 L25.4166667,40.4583333 C26.0416667,40.4583333 26.3178125,40.1725 26.6666667,39.8333333 L29.669,36.913 L35.9166667,41.5289583 C37.0663542,42.1633125 37.896125,41.834875 38.1825,40.4615625 L42.2835417,21.1359375 C42.7034167,19.4525625 41.6418542,18.6890625 40.542,19.1883958 Z" id="Combined-Shape"></path>
            </g>
        </g>
    </g>
</svg>