<?xml version="1.0" encoding="UTF-8"?>
<svg width="52px" height="52px" viewBox="0 0 52 52" version="1.1" xmlns="http://www.w3.org/2000/svg" xmlns:xlink="http://www.w3.org/1999/xlink">
    <title>Combined Shape</title>
    <g id="Page-1" stroke="none" stroke-width="1" fill="none" fill-rule="evenodd">
        <g id="Landing-Page" transform="translate(-739.000000, -10129.000000)" fill="#0F0F0F" stroke="#6C00FF" stroke-width="0.832">
            <path d="M765,10130 C778.807119,10130 790,10141.1929 790,10155 C790,10168.8071 778.807119,10180 765,10180 C751.192881,10180 740,10168.8071 740,10155 C740,10141.1929 751.192881,10130 765,10130 Z M767.661214,10145.2359 C765.475342,10146.0303 764.09387,10148.0782 764.251253,10150.3203 L764.303714,10151.1854 L763.429365,10151.0794 C760.246734,10150.6734 757.466303,10149.2964 755.105561,10146.9837 L753.95142,10145.8361 L753.654141,10146.6835 C753.024609,10148.5725 753.42681,10150.5675 754.738334,10151.9092 C755.437813,10152.6507 755.28043,10152.7566 754.073828,10152.3152 C753.654141,10152.174 753.286914,10152.0681 753.25194,10152.121 C753.129531,10152.2446 753.549219,10153.8512 753.881472,10154.4867 C754.336133,10155.3694 755.262943,10156.2345 756.277188,10156.7464 L757.134051,10157.1525 L756.119806,10157.1701 C755.140534,10157.1701 755.105561,10157.1878 755.210482,10157.5585 C755.560222,10158.7061 756.941694,10159.9242 758.480548,10160.4538 L759.564741,10160.8246 L758.620444,10161.3895 C757.221485,10162.2016 755.577709,10162.6606 753.933933,10162.6959 C753.147018,10162.7136 752.5,10162.7842 752.5,10162.8371 C752.5,10163.0137 754.633412,10164.0023 755.874988,10164.3907 C759.599715,10165.5382 764.023922,10165.0439 767.346449,10163.0843 C769.707192,10161.6896 772.067934,10158.9179 773.169614,10156.2345 C773.764172,10154.8045 774.358729,10152.1917 774.358729,10150.9382 C774.358729,10150.1261 774.41119,10150.0202 775.390461,10149.0492 C775.967531,10148.4843 776.509628,10147.8664 776.61455,10147.6898 C776.78942,10147.3544 776.771933,10147.3544 775.880097,10147.6545 C774.393703,10148.1842 774.183859,10148.1135 774.918313,10147.3191 C775.460409,10146.7542 776.107427,10145.7302 776.107427,10145.4301 C776.107427,10145.3771 775.845123,10145.4654 775.547844,10145.6243 C775.233078,10145.8008 774.533599,10146.0656 774.008989,10146.2245 L773.064692,10146.5247 L772.20783,10145.9421 C771.735682,10145.6243 771.071176,10145.2712 770.721437,10145.1653 C769.8296,10144.9181 768.465616,10144.9534 767.661214,10145.2359 Z" id="Combined-Shape"></path>
        </g>
    </g>
</svg>