<?xml version="1.0" encoding="UTF-8"?>
<svg width="60px" height="58px" viewBox="0 0 60 58" version="1.1" xmlns="http://www.w3.org/2000/svg" xmlns:xlink="http://www.w3.org/1999/xlink">
    <title>Group 23</title>
    <g id="Page-1" stroke="none" stroke-width="1" fill="none" fill-rule="evenodd">
        <g id="Landing-Page" transform="translate(-736.000000, -10127.000000)" stroke="#6C00FF">
            <g id="Group-23" transform="translate(736.000000, 10127.000000)">
                <ellipse id="Oval" stroke-width="0.64" cx="30" cy="29" rx="29.68" ry="28.68"></ellipse>
                <path d="M30,4 C43.8071194,4 55,15.1928806 55,29 C55,42.8071194 43.8071194,54 30,54 C16.1928806,54 5,42.8071194 5,29 C5,15.1928806 16.1928806,4 30,4 Z M32.6612145,19.2359 C30.4753416,20.0303396 29.0938699,22.0782282 29.2512527,24.3203132 L29.3037137,25.1853696 L28.4293645,25.0794443 C25.2467336,24.6733974 22.4663032,23.2963688 20.1055605,20.983667 L18.9514196,19.8361432 L18.6541409,20.6835454 C18.0246095,22.5725461 18.4268101,24.5674721 19.7383339,25.9091923 C20.4378132,26.6506692 20.2804303,26.7565944 19.0738285,26.3152391 C18.6541409,26.1740054 18.2869142,26.0680802 18.2519403,26.1210428 C18.1295314,26.2446223 18.549219,27.8511556 18.8814717,28.4867072 C19.3361332,29.3694179 20.2629434,30.2344743 21.2771884,30.7464464 L22.1340506,31.1524933 L21.1198055,31.1701475 C20.1405345,31.1701475 20.1055605,31.1878017 20.2104824,31.5585402 C20.5602221,32.706064 21.9416937,33.9242046 23.4805483,34.453831 L24.5647412,34.8245695 L23.6204441,35.3895042 C22.2214855,36.201598 20.577709,36.6606075 18.9339326,36.695916 C18.1470184,36.7135702 17.5,36.784187 17.5,36.8371496 C17.5,37.0136918 19.633412,38.0023277 20.8749878,38.3907203 C24.5997152,39.5382441 29.023922,39.0439262 32.3464488,37.0843086 C34.7071915,35.6896259 37.0679342,32.9179145 38.1696142,30.2344743 C38.7641716,28.8044831 39.358729,26.1916597 39.358729,24.9382106 C39.358729,24.1261168 39.41119,24.0201915 40.3904611,23.0492099 C40.9675315,22.4842751 41.509628,21.8663776 41.6145499,21.6898355 C41.7894197,21.3544055 41.7719327,21.3544055 40.8800966,21.6545271 C39.393703,22.1841535 39.1838592,22.1135366 39.9183125,21.3190971 C40.460409,20.7541623 41.1074274,19.730218 41.1074274,19.4300964 C41.1074274,19.3771337 40.8451226,19.4654048 40.5478439,19.6242927 C40.2330782,19.8008348 39.5335989,20.065648 39.0089894,20.2245359 L38.0646923,20.5246575 L37.2078301,19.9420685 C36.7356816,19.6242927 36.0711762,19.2712084 35.7214365,19.1652832 C34.8296004,18.9181242 33.4656157,18.9534326 32.6612145,19.2359 Z" id="Combined-Shape" stroke-width="0.832"></path>
            </g>
        </g>
    </g>
</svg>